<?xml version="1.0" standalone="no"?><!DOCTYPE svg PUBLIC "-//W3C//DTD SVG 1.1//EN" "http://www.w3.org/Graphics/SVG/1.1/DTD/svg11.dtd"><svg t="1522915654380" class="icon" style="" viewBox="0 0 1024 1024" version="1.1" xmlns="http://www.w3.org/2000/svg" p-id="1049" xmlns:xlink="http://www.w3.org/1999/xlink" width="200" height="200"><defs><style type="text/css"></style></defs><path d="M512 219.428571q-30.285714 0-51.714286 21.428571t-21.428571 51.714286l0 73.142857-18.285714 0 0-53.142857q0-27.428571-18.285714-46.571429t-45.714286-19.142857q-26.285714 0-45.142857 18.857143t-18.857143 45.142857l0 245.142857-18.285714-17.142857 0-98.285714q0-27.428571-18.285714-46.571429t-45.714286-19.142857q-26.285714 0-45.142857 18.857143t-18.857143 45.142857l0 128q0 26.857143 20 46.857143l177.142857 169.142857q22.285714 22.285714 22.285714 58.285714 0 14.857143 10.857143 25.714286t25.714286 10.857143l365.714286 0q14.857143 0 25.714286-10.857143t10.857143-25.714286l0-14.285714q0-23.428571 5.714286-44l61.714286-249.142857q5.714286-20.571429 5.714286-44l0-140.571429q0-27.428571-18.285714-46.571429t-45.714286-19.142857q-26.285714 0-45.142857 18.857143t-18.857143 45.142857l0 18.285714-18.285714 0 0-71.428571q0-22.857143-14.285714-41.428571t-36.571429-23.142857q-8-1.142857-13.142857-1.142857-26.285714 0-45.142857 18.857143t-18.857143 45.142857l0 73.142857-18.285714 0 0-69.714286q0-29.142857-18.571429-51.142857t-47.142857-24.857143q-2.857143-0.571429-7.428571-0.571429zm0-73.142857q48 0 85.142857 28.571429 32.571429-19.428571 70.285714-19.428571 33.714286 0 63.428571 15.428571t49.142857 43.428571q15.428571-4 33.714286-4 57.142857 0 97.142857 40.857143t40 98l0 140.571429q0 29.142857-7.428571 61.714286l-62.285714 249.142857q-3.428571 13.714286-3.428571 40.571429 0 45.714286-32 77.714286t-77.714286 32l-365.714286 0q-48 0-78.857143-33.428571t-30.857143-81.428571l-176-169.142857q-43.428571-41.714286-43.428571-100l0-128q0-56.571429 40.285714-96.857143t96.857143-40.285714q6.285714 0 9.142857 0.571429 3.428571-54.285714 43.142857-91.428571t94-37.142857q29.714286 0 56 12 41.142857-39.428571 99.428571-39.428571z" p-id="1050" fill="#cdcdcd"></path></svg>