<?xml version="1.0" standalone="no"?><!DOCTYPE svg PUBLIC "-//W3C//DTD SVG 1.1//EN" "http://www.w3.org/Graphics/SVG/1.1/DTD/svg11.dtd"><svg t="1522915716323" class="icon" style="" viewBox="0 0 1024 1024" version="1.1" xmlns="http://www.w3.org/2000/svg" p-id="1687" xmlns:xlink="http://www.w3.org/1999/xlink" width="200" height="200"><defs><style type="text/css"></style></defs><path d="M85.333333 170.666667h256v85.333333h341.333334V170.666667h256v256h-85.333334v170.666666h85.333334v256h-256v-85.333333H341.333333v85.333333H85.333333v-256h85.333334v-170.666666H85.333333V170.666667m597.333334 256V341.333333H341.333333v85.333334H256v170.666666h85.333333v85.333334h341.333334v-85.333334h85.333333v-170.666666h-85.333333M170.666667 256v85.333333h85.333333V256H170.666667m597.333333 0v85.333333h85.333333V256h-85.333333M170.666667 682.666667v85.333333h85.333333v-85.333333H170.666667m597.333333 0v85.333333h85.333333v-85.333333h-85.333333z" fill="#d4237a" p-id="1688"></path></svg>